<svg xmlns="http://www.w3.org/2000/svg" xmlns:xlink="http://www.w3.org/1999/xlink" width="141.732" height="44.05" viewBox="0 0 141.732 44.05">
  <defs>
    <clipPath id="clip-path">
      <rect id="Rectangle_966" data-name="Rectangle 966" width="141.732" height="44.05" fill="none"></rect>
    </clipPath>
  </defs>
  <g id="ALFA_LOGO_2023" data-name="ALFA LOGO 2023" transform="translate(0 0)">
    <path id="Path_2292" data-name="Path 2292" d="M222.067,23.972h6.92l6.92-11.985,6.92,11.985h6.919L235.907,0Z" transform="translate(-111.034 0)" fill="#4d387e"></path>
    <path id="Path_2293" data-name="Path 2293" d="M159.895,0V23.971h5.826V16.247h8.452l3.365-5.953H165.72V5.953h14.266L183.351,0Z" transform="translate(-79.947)" fill="#4d387e"></path>
    <path id="Path_2294" data-name="Path 2294" d="M88.174,0V23.971H111.63l-3.365-5.953H94V0Z" transform="translate(-44.087)" fill="#4d387e"></path>
    <path id="Path_2295" data-name="Path 2295" d="M6.036,23.972h6.92l6.92-11.985L26.8,23.972h6.92L19.876,0Z" transform="translate(-3.018 0)" fill="#4d387e"></path>
    <rect id="Rectangle_963" data-name="Rectangle 963" width="141.732" height="2.188" transform="translate(0 29.038)" fill="#e50019"></rect>
    <path id="Path_2296" data-name="Path 2296" d="M4.9,72.586l-1.826,5.6-1.826-5.6H0l2.6,7.692h.935l2.627-7.692Z" transform="translate(0 -36.293)" fill="#ffffff"></path>
    <rect id="Rectangle_964" data-name="Rectangle 964" width="1.202" height="7.692" transform="translate(7.292 36.293)" fill="#ffffff"></rect>
    <path id="Path_2297" data-name="Path 2297" d="M21.2,72.586v7.692h5.066V79.231H22.4V76.919h3.3V75.882H22.4V73.634h3.863V72.586Z" transform="translate(-10.599 -36.293)" fill="#ffffff"></path>
    <path id="Path_2298" data-name="Path 2298" d="M39.458,72.586v5.4l-3.663-5.4h-1.1v7.692h1.2V74.866l3.663,5.413h1.1V72.586Z" transform="translate(-17.347 -36.293)" fill="#ffffff"></path>
    <path id="Path_2299" data-name="Path 2299" d="M55.6,72.586v5.4l-3.663-5.4h-1.1v7.692h1.2V74.866L55.7,80.279h1.1V72.586Z" transform="translate(-25.418 -36.293)" fill="#ffffff"></path>
    <path id="Path_2300" data-name="Path 2300" d="M68.506,74.326l1.2,3.414H67.27Zm-.513-1.74-2.906,7.692h1.281l.545-1.545h3.129l.545,1.545h1.281l-2.906-7.692Z" transform="translate(-32.544 -36.293)" fill="#ffffff"></path>
    <rect id="Rectangle_965" data-name="Rectangle 965" width="1.202" height="7.692" transform="translate(43.176 36.293)" fill="#ffffff"></rect>
    <path id="Path_2301" data-name="Path 2301" d="M97.732,72.586v5.4l-3.663-5.4h-1.1v7.692h1.2V74.866l3.663,5.413h1.1V72.586Z" transform="translate(-46.483 -36.293)" fill="#ffffff"></path>
    <g id="Group_3727" data-name="Group 3727" transform="translate(0 0)">
      <g id="Group_3726" data-name="Group 3726" clip-path="url(#clip-path)">
        <path id="Path_2302" data-name="Path 2302" d="M110.514,80.279a3.651,3.651,0,0,1-2.806-1.016l.8-.767a2.661,2.661,0,0,0,2.026.734c1.036,0,1.637-.432,1.637-1.177a1.018,1.018,0,0,0-.312-.8,1.4,1.4,0,0,0-.869-.324l-.935-.13a2.755,2.755,0,0,1-1.5-.616,1.88,1.88,0,0,1-.58-1.469c0-1.34,1-2.258,2.65-2.258a3.358,3.358,0,0,1,2.46.875l-.768.735a2.371,2.371,0,0,0-1.726-.594c-.935,0-1.447.518-1.447,1.2a.9.9,0,0,0,.3.714,1.794,1.794,0,0,0,.89.356l.9.13a2.674,2.674,0,0,1,1.481.573,1.982,1.982,0,0,1,.646,1.577c0,1.415-1.192,2.257-2.851,2.257" transform="translate(-53.854 -36.229)" fill="#ffffff"></path>
        <path id="Path_2303" data-name="Path 2303" d="M124.887,80.344a2.652,2.652,0,0,1-2.839-2.658v-5.1h1.2v5.045a1.642,1.642,0,1,0,3.284,0V72.587h1.2v5.1a2.662,2.662,0,0,1-2.851,2.658" transform="translate(-61.024 -36.293)" fill="#ffffff"></path>
        <path id="Path_2304" data-name="Path 2304" d="M141.766,80.278,140.1,77.037h-1.5v3.242h-1.2V72.586h3.073a2.239,2.239,0,0,1,2.46,2.247,2.031,2.031,0,0,1-1.58,2.042l1.826,3.4Zm-1.392-6.644h-1.781v2.409h1.781a1.212,1.212,0,1,0,0-2.409" transform="translate(-68.695 -36.293)" fill="#ffffff"></path>
        <path id="Path_2305" data-name="Path 2305" d="M155.627,80.279l-.546-1.544h-3.128l-.545,1.544h-1.281l2.906-7.692H154l2.906,7.692Zm-2.082-5.953-1.236,3.414h2.438Z" transform="translate(-75.063 -36.293)" fill="#ffffff"></path>
        <path id="Path_2306" data-name="Path 2306" d="M170.847,80.279l-3.663-5.413v5.413h-1.2V72.586h1.1l3.663,5.4v-5.4h1.2v7.692Z" transform="translate(-82.991 -36.293)" fill="#ffffff"></path>
        <path id="Path_2307" data-name="Path 2307" d="M184.4,80.279a2.918,2.918,0,0,1-2.082-.821c-.779-.756-.768-1.609-.768-3.09s-.011-2.333.768-3.09a2.917,2.917,0,0,1,2.082-.821,2.965,2.965,0,0,1,2.216.907l-.8.789a1.818,1.818,0,0,0-1.414-.648,1.61,1.61,0,0,0-1.169.465c-.389.41-.467.854-.467,2.4s.078,1.987.467,2.4a1.608,1.608,0,0,0,1.169.464,1.819,1.819,0,0,0,1.414-.648l.8.788a2.964,2.964,0,0,1-2.216.908" transform="translate(-90.773 -36.229)" fill="#ffffff"></path>
        <path id="Path_2308" data-name="Path 2308" d="M194.974,80.279V72.586h5.066v1.048h-3.864v2.247h3.3v1.037h-3.3v2.312h3.864v1.048Z" transform="translate(-97.487 -36.293)" fill="#ffffff"></path>
        <path id="Path_2309" data-name="Path 2309" d="M218.288,79.393a3.063,3.063,0,0,1-4.242.064c-.779-.756-.768-1.609-.768-3.09s-.011-2.333.768-3.09a2.88,2.88,0,0,1,2.083-.821,3.036,3.036,0,0,1,2.394,1.016l-.814.788a2.031,2.031,0,0,0-1.58-.756,1.646,1.646,0,0,0-1.18.475c-.39.411-.467.843-.467,2.388s.077,1.988.467,2.4a1.634,1.634,0,0,0,1.18.465,1.656,1.656,0,0,0,1.269-.54,1.739,1.739,0,0,0,.389-1.22v-.422h-1.658v-.994h2.861v1.157a2.85,2.85,0,0,1-.7,2.182" transform="translate(-106.639 -36.228)" fill="#ffffff"></path>
        <path id="Path_2310" data-name="Path 2310" d="M232.573,80.278l-1.67-3.242h-1.5v3.242h-1.2V72.586h3.073a2.239,2.239,0,0,1,2.46,2.247,2.032,2.032,0,0,1-1.581,2.042l1.827,3.4Zm-1.392-6.644H229.4v2.409h1.781a1.212,1.212,0,1,0,0-2.409" transform="translate(-114.099 -36.293)" fill="#ffffff"></path>
        <path id="Path_2311" data-name="Path 2311" d="M247.213,79.458a3.065,3.065,0,0,1-4.175,0c-.779-.756-.769-1.609-.769-3.09s-.011-2.333.769-3.09a3.065,3.065,0,0,1,4.175,0c.779.757.758,1.61.758,3.09s.021,2.334-.758,3.09m-.913-5.477a1.7,1.7,0,0,0-2.361,0c-.389.41-.467.842-.467,2.388s.078,1.977.467,2.388a1.7,1.7,0,0,0,2.361,0c.389-.411.467-.843.467-2.388s-.078-1.978-.467-2.388" transform="translate(-121.135 -36.229)" fill="#ffffff"></path>
        <path id="Path_2312" data-name="Path 2312" d="M259.873,80.344a2.652,2.652,0,0,1-2.839-2.658v-5.1h1.2v5.045a1.642,1.642,0,1,0,3.284,0V72.587h1.2v5.1a2.661,2.661,0,0,1-2.851,2.658" transform="translate(-128.517 -36.293)" fill="#ffffff"></path>
        <path id="Path_2313" data-name="Path 2313" d="M275.382,77.253h-1.8v3.026h-1.2V72.586h3.007a2.342,2.342,0,1,1,0,4.667m-.067-3.619h-1.737v2.56h1.737a1.286,1.286,0,1,0,0-2.56" transform="translate(-136.188 -36.293)" fill="#ffffff"></path>
      </g>
    </g>
  </g>
</svg>