<svg width="37mm" height="37mm" version="1.1" viewBox="0 0 37 37" xmlns="http://www.w3.org/2000/svg"><path d="M2,2H3V3H2zM3,2H4V3H3zM4,2H5V3H4zM5,2H6V3H5zM6,2H7V3H6zM7,2H8V3H7zM8,2H9V3H8zM11,2H12V3H11zM12,2H13V3H12zM14,2H15V3H14zM19,2H20V3H19zM20,2H21V3H20zM25,2H26V3H25zM26,2H27V3H26zM28,2H29V3H28zM29,2H30V3H29zM30,2H31V3H30zM31,2H32V3H31zM32,2H33V3H32zM33,2H34V3H33zM34,2H35V3H34zM2,3H3V4H2zM8,3H9V4H8zM15,3H16V4H15zM21,3H22V4H21zM22,3H23V4H22zM25,3H26V4H25zM28,3H29V4H28zM34,3H35V4H34zM2,4H3V5H2zM4,4H5V5H4zM5,4H6V5H5zM6,4H7V5H6zM8,4H9V5H8zM11,4H12V5H11zM12,4H13V5H12zM13,4H14V5H13zM14,4H15V5H14zM16,4H17V5H16zM18,4H19V5H18zM20,4H21V5H20zM21,4H22V5H21zM22,4H23V5H22zM25,4H26V5H25zM28,4H29V5H28zM30,4H31V5H30zM31,4H32V5H31zM32,4H33V5H32zM34,4H35V5H34zM2,5H3V6H2zM4,5H5V6H4zM5,5H6V6H5zM6,5H7V6H6zM8,5H9V6H8zM12,5H13V6H12zM14,5H15V6H14zM19,5H20V6H19zM21,5H22V6H21zM24,5H25V6H24zM25,5H26V6H25zM28,5H29V6H28zM30,5H31V6H30zM31,5H32V6H31zM32,5H33V6H32zM34,5H35V6H34zM2,6H3V7H2zM4,6H5V7H4zM5,6H6V7H5zM6,6H7V7H6zM8,6H9V7H8zM10,6H11V7H10zM14,6H15V7H14zM16,6H17V7H16zM17,6H18V7H17zM18,6H19V7H18zM19,6H20V7H19zM20,6H21V7H20zM21,6H22V7H21zM22,6H23V7H22zM23,6H24V7H23zM24,6H25V7H24zM25,6H26V7H25zM28,6H29V7H28zM30,6H31V7H30zM31,6H32V7H31zM32,6H33V7H32zM34,6H35V7H34zM2,7H3V8H2zM8,7H9V8H8zM11,7H12V8H11zM13,7H14V8H13zM14,7H15V8H14zM15,7H16V8H15zM16,7H17V8H16zM18,7H19V8H18zM20,7H21V8H20zM21,7H22V8H21zM23,7H24V8H23zM26,7H27V8H26zM28,7H29V8H28zM34,7H35V8H34zM2,8H3V9H2zM3,8H4V9H3zM4,8H5V9H4zM5,8H6V9H5zM6,8H7V9H6zM7,8H8V9H7zM8,8H9V9H8zM10,8H11V9H10zM12,8H13V9H12zM14,8H15V9H14zM16,8H17V9H16zM18,8H19V9H18zM20,8H21V9H20zM22,8H23V9H22zM24,8H25V9H24zM26,8H27V9H26zM28,8H29V9H28zM29,8H30V9H29zM30,8H31V9H30zM31,8H32V9H31zM32,8H33V9H32zM33,8H34V9H33zM34,8H35V9H34zM10,9H11V10H10zM15,9H16V10H15zM17,9H18V10H17zM18,9H19V10H18zM20,9H21V10H20zM24,9H25V10H24zM25,9H26V10H25zM4,10H5V11H4zM5,10H6V11H5zM8,10H9V11H8zM9,10H10V11H9zM10,10H11V11H10zM12,10H13V11H12zM15,10H16V11H15zM20,10H21V11H20zM23,10H24V11H23zM27,10H28V11H27zM28,10H29V11H28zM30,10H31V11H30zM2,11H3V12H2zM4,11H5V12H4zM6,11H7V12H6zM7,11H8V12H7zM11,11H12V12H11zM12,11H13V12H12zM13,11H14V12H13zM14,11H15V12H14zM16,11H17V12H16zM18,11H19V12H18zM20,11H21V12H20zM25,11H26V12H25zM26,11H27V12H26zM27,11H28V12H27zM28,11H29V12H28zM31,11H32V12H31zM33,11H34V12H33zM34,11H35V12H34zM3,12H4V13H3zM4,12H5V13H4zM5,12H6V13H5zM6,12H7V13H6zM8,12H9V13H8zM9,12H10V13H9zM10,12H11V13H10zM15,12H16V13H15zM16,12H17V13H16zM17,12H18V13H17zM20,12H21V13H20zM22,12H23V13H22zM23,12H24V13H23zM24,12H25V13H24zM25,12H26V13H25zM26,12H27V13H26zM32,12H33V13H32zM33,12H34V13H33zM34,12H35V13H34zM2,13H3V14H2zM3,13H4V14H3zM5,13H6V14H5zM6,13H7V14H6zM11,13H12V14H11zM12,13H13V14H12zM13,13H14V14H13zM16,13H17V14H16zM18,13H19V14H18zM19,13H20V14H19zM23,13H24V14H23zM24,13H25V14H24zM26,13H27V14H26zM28,13H29V14H28zM29,13H30V14H29zM30,13H31V14H30zM31,13H32V14H31zM34,13H35V14H34zM3,14H4V15H3zM6,14H7V15H6zM7,14H8V15H7zM8,14H9V15H8zM10,14H11V15H10zM13,14H14V15H13zM15,14H16V15H15zM16,14H17V15H16zM21,14H22V15H21zM22,14H23V15H22zM23,14H24V15H23zM24,14H25V15H24zM26,14H27V15H26zM27,14H28V15H27zM29,14H30V15H29zM6,15H7V16H6zM7,15H8V16H7zM9,15H10V16H9zM11,15H12V16H11zM12,15H13V16H12zM15,15H16V16H15zM19,15H20V16H19zM22,15H23V16H22zM23,15H24V16H23zM26,15H27V16H26zM29,15H30V16H29zM30,15H31V16H30zM31,15H32V16H31zM5,16H6V17H5zM8,16H9V17H8zM15,16H16V17H15zM17,16H18V17H17zM20,16H21V17H20zM22,16H23V17H22zM23,16H24V17H23zM26,16H27V17H26zM28,16H29V17H28zM31,16H32V17H31zM32,16H33V17H32zM5,17H6V18H5zM12,17H13V18H12zM13,17H14V18H13zM22,17H23V18H22zM23,17H24V18H23zM24,17H25V18H24zM26,17H27V18H26zM28,17H29V18H28zM30,17H31V18H30zM32,17H33V18H32zM2,18H3V19H2zM3,18H4V19H3zM6,18H7V19H6zM8,18H9V19H8zM10,18H11V19H10zM14,18H15V19H14zM20,18H21V19H20zM22,18H23V19H22zM23,18H24V19H23zM25,18H26V19H25zM26,18H27V19H26zM27,18H28V19H27zM28,18H29V19H28zM30,18H31V19H30zM31,18H32V19H31zM32,18H33V19H32zM33,18H34V19H33zM2,19H3V20H2zM5,19H6V20H5zM6,19H7V20H6zM7,19H8V20H7zM9,19H10V20H9zM12,19H13V20H12zM13,19H14V20H13zM15,19H16V20H15zM17,19H18V20H17zM18,19H19V20H18zM19,19H20V20H19zM20,19H21V20H20zM22,19H23V20H22zM23,19H24V20H23zM24,19H25V20H24zM25,19H26V20H25zM27,19H28V20H27zM28,19H29V20H28zM30,19H31V20H30zM32,19H33V20H32zM33,19H34V20H33zM34,19H35V20H34zM7,20H8V21H7zM8,20H9V21H8zM9,20H10V21H9zM10,20H11V21H10zM11,20H12V21H11zM15,20H16V21H15zM20,20H21V21H20zM21,20H22V21H21zM22,20H23V21H22zM29,20H30V21H29zM32,20H33V21H32zM33,20H34V21H33zM4,21H5V22H4zM7,21H8V22H7zM9,21H10V22H9zM11,21H12V22H11zM12,21H13V22H12zM17,21H18V22H17zM19,21H20V22H19zM20,21H21V22H20zM22,21H23V22H22zM27,21H28V22H27zM28,21H29V22H28zM29,21H30V22H29zM2,22H3V23H2zM3,22H4V23H3zM4,22H5V23H4zM7,22H8V23H7zM8,22H9V23H8zM9,22H10V23H9zM10,22H11V23H10zM12,22H13V23H12zM13,22H14V23H13zM14,22H15V23H14zM16,22H17V23H16zM17,22H18V23H17zM18,22H19V23H18zM19,22H20V23H19zM23,22H24V23H23zM27,22H28V23H27zM31,22H32V23H31zM32,22H33V23H32zM2,23H3V24H2zM3,23H4V24H3zM6,23H7V24H6zM10,23H11V24H10zM11,23H12V24H11zM12,23H13V24H12zM14,23H15V24H14zM15,23H16V24H15zM18,23H19V24H18zM20,23H21V24H20zM23,23H24V24H23zM24,23H25V24H24zM27,23H28V24H27zM34,23H35V24H34zM7,24H8V25H7zM8,24H9V25H8zM12,24H13V25H12zM13,24H14V25H13zM16,24H17V25H16zM17,24H18V25H17zM22,24H23V25H22zM28,24H29V25H28zM29,24H30V25H29zM31,24H32V25H31zM32,24H33V25H32zM33,24H34V25H33zM34,24H35V25H34zM3,25H4V26H3zM4,25H5V26H4zM6,25H7V26H6zM9,25H10V26H9zM10,25H11V26H10zM11,25H12V26H11zM12,25H13V26H12zM15,25H16V26H15zM16,25H17V26H16zM17,25H18V26H17zM18,25H19V26H18zM20,25H21V26H20zM25,25H26V26H25zM26,25H27V26H26zM27,25H28V26H27zM31,25H32V26H31zM34,25H35V26H34zM2,26H3V27H2zM4,26H5V27H4zM5,26H6V27H5zM8,26H9V27H8zM9,26H10V27H9zM11,26H12V27H11zM12,26H13V27H12zM14,26H15V27H14zM15,26H16V27H15zM17,26H18V27H17zM22,26H23V27H22zM24,26H25V27H24zM25,26H26V27H25zM26,26H27V27H26zM27,26H28V27H27zM28,26H29V27H28zM29,26H30V27H29zM30,26H31V27H30zM10,27H11V28H10zM12,27H13V28H12zM13,27H14V28H13zM15,27H16V28H15zM17,27H18V28H17zM18,27H19V28H18zM19,27H20V28H19zM20,27H21V28H20zM21,27H22V28H21zM24,27H25V28H24zM26,27H27V28H26zM30,27H31V28H30zM32,27H33V28H32zM33,27H34V28H33zM2,28H3V29H2zM3,28H4V29H3zM4,28H5V29H4zM5,28H6V29H5zM6,28H7V29H6zM7,28H8V29H7zM8,28H9V29H8zM10,28H11V29H10zM11,28H12V29H11zM13,28H14V29H13zM14,28H15V29H14zM16,28H17V29H16zM17,28H18V29H17zM19,28H20V29H19zM20,28H21V29H20zM22,28H23V29H22zM24,28H25V29H24zM25,28H26V29H25zM26,28H27V29H26zM28,28H29V29H28zM30,28H31V29H30zM2,29H3V30H2zM8,29H9V30H8zM13,29H14V30H13zM20,29H21V30H20zM22,29H23V30H22zM23,29H24V30H23zM24,29H25V30H24zM25,29H26V30H25zM26,29H27V30H26zM30,29H31V30H30zM31,29H32V30H31zM32,29H33V30H32zM33,29H34V30H33zM34,29H35V30H34zM2,30H3V31H2zM4,30H5V31H4zM5,30H6V31H5zM6,30H7V31H6zM8,30H9V31H8zM12,30H13V31H12zM13,30H14V31H13zM14,30H15V31H14zM19,30H20V31H19zM20,30H21V31H20zM21,30H22V31H21zM22,30H23V31H22zM25,30H26V31H25zM26,30H27V31H26zM27,30H28V31H27zM28,30H29V31H28zM29,30H30V31H29zM30,30H31V31H30zM32,30H33V31H32zM33,30H34V31H33zM2,31H3V32H2zM4,31H5V32H4zM5,31H6V32H5zM6,31H7V32H6zM8,31H9V32H8zM10,31H11V32H10zM12,31H13V32H12zM14,31H15V32H14zM20,31H21V32H20zM21,31H22V32H21zM23,31H24V32H23zM29,31H30V32H29zM31,31H32V32H31zM32,31H33V32H32zM2,32H3V33H2zM4,32H5V33H4zM5,32H6V33H5zM6,32H7V33H6zM8,32H9V33H8zM10,32H11V33H10zM11,32H12V33H11zM12,32H13V33H12zM14,32H15V33H14zM18,32H19V33H18zM22,32H23V33H22zM27,32H28V33H27zM28,32H29V33H28zM31,32H32V33H31zM2,33H3V34H2zM8,33H9V34H8zM11,33H12V34H11zM12,33H13V34H12zM15,33H16V34H15zM17,33H18V34H17zM19,33H20V34H19zM22,33H23V34H22zM24,33H25V34H24zM25,33H26V34H25zM26,33H27V34H26zM27,33H28V34H27zM31,33H32V34H31zM34,33H35V34H34zM2,34H3V35H2zM3,34H4V35H3zM4,34H5V35H4zM5,34H6V35H5zM6,34H7V35H6zM7,34H8V35H7zM8,34H9V35H8zM13,34H14V35H13zM16,34H17V35H16zM17,34H18V35H17zM18,34H19V35H18zM23,34H24V35H23zM25,34H26V35H25zM27,34H28V35H27zM29,34H30V35H29zM30,34H31V35H30z" id="qr-path" fill="#ffffff" fill-opacity="1" fill-rule="nonzero" stroke="none"></path></svg>